 http://www.imdb.com/title/tt0119643/

Source: Meet Joe Black [BDRip-720p-Mkv-Ita/Eng/Esp/Fra/Deu-Ac3-MultiSub] Thanks!

Subs: Danish, Dutch, English, Finnish, French, German, Italian, Norwegian, Portuguese, Spanish and Swedish.

Sample and Screens included.

General
Complete name                            : Meet Joe Black-720p MP4 AAC x264 BRRip 1998-CC.mp4
Format                                   : MPEG-4
Format profile                           : Base Media
Codec ID                                 : isom
File size                                : 3.76 GiB
Duration                                 : 3h 0mn
Overall bit rate mode                    : Variable
Overall bit rate                         : 2 980 Kbps
Encoded date                             : UTC 2012-10-11 09:41:03

Video
ID                                       : 1
Format                                   : AVC
Format/Info                              : Advanced Video Codec
Format profile                           : High@L4.1
Format settings, CABAC                   : Yes
Format settings, ReFrames                : 5 frames
Codec ID                                 : avc1
Codec ID/Info                            : Advanced Video Coding
Duration                                 : 3h 0mn
Source duration                          : 3h 0mn
Bit rate                                 : 2 625 Kbps
Maximum bit rate                         : 18.1 Mbps
Width                                    : 1 280 pixels
Height                                   : 688 pixels
Display aspect ratio                     : 1.85:1
Frame rate mode                          : Variable
Frame rate                               : 23.976 fps
Minimum frame rate                       : 19.048 fps
Maximum frame rate                       : 24.390 fps
Color space                              : YUV
Chroma subsampling                       : 4:2:0
Bit depth                                : 8 bits
Scan type                                : Progressive
Bits/(Pixel*Frame)                       : 0.124
Stream size                              : 3.27 GiB (87%)
Source stream size                       : 3.27 GiB (87%)
Writing library                          : x264 core 112

Audio
ID                                       : 2
Format                                   : AAC
Format/Info                              : Advanced Audio Codec
Format profile                           : LC
Codec ID                                 : 40
Duration                                 : 3h 0mn
Bit rate mode                            : Variable
Bit rate                                 : 384 Kbps
Maximum bit rate                         : 479 Kbps
Channel(s)                               : 6 channels
Channel positions                        : Front: L C R, Side: L R, LFE
Sampling rate                            : 48.0 KHz
Compression mode                         : Lossy
Delay relative to video                  : 105ms
Stream size                              : 495 MiB (13%)
Language                                 : English

Enjoy...

Requested by Alorati.

Coming soon: The Sting, Cat Run, Sunset Blvd, Sixteen Candles and more..